<?xml version="1.0" standalone="no"?>
<!DOCTYPE svg PUBLIC "-//W3C//DTD SVG 20010904//EN"
 "http://www.w3.org/TR/2001/REC-SVG-20010904/DTD/svg10.dtd">
<svg version="1.0" xmlns="http://www.w3.org/2000/svg"
 width="496.000000pt" height="496.000000pt" viewBox="0 0 496.000000 496.000000"
 preserveAspectRatio="xMidYMid meet">
<metadata>
Created by potrace 1.16, written by Peter Selinger 2001-2019
</metadata>
<g transform="translate(0.000000,496.000000) scale(0.100000,-0.100000)"
fill="#000000" stroke="none">
<path d="M2287 3775 c-9 -8 -23 -37 -31 -63 -23 -67 -11 -96 50 -122 34 -15
44 -24 40 -36 -3 -9 -6 -20 -6 -25 0 -5 -29 -9 -64 -9 -110 0 -130 -28 -206
-295 -52 -184 -60 -258 -43 -390 5 -45 11 -54 52 -85 54 -40 84 -43 206 -16
73 16 229 24 330 17 22 -1 82 -12 134 -23 106 -22 123 -20 185 24 44 31 45 31
52 106 11 124 -1 213 -56 402 -68 233 -89 260 -204 260 -47 0 -54 3 -59 22 -7
25 8 48 32 48 36 0 61 29 61 71 0 43 -23 109 -43 121 -7 4 -103 8 -214 8 -165
0 -204 -3 -216 -15z m425 -12 c15 -17 38 -83 38 -110 0 -23 -39 -53 -70 -53
-29 0 -30 -2 -30 -45 l0 -45 63 0 c76 0 124 -28 150 -87 26 -59 106 -347 113
-408 4 -29 3 -91 -1 -138 -6 -82 -7 -85 -38 -100 -18 -9 -43 -26 -57 -37 l-25
-20 -100 22 c-141 31 -359 31 -500 0 l-100 -22 -25 20 c-14 11 -39 28 -57 37
-31 16 -31 17 -38 109 -4 52 -4 115 0 141 9 64 98 371 118 410 26 49 74 73
146 73 l61 0 0 45 c0 43 -1 45 -30 45 -31 0 -70 30 -70 53 0 22 19 79 35 103
15 24 16 24 209 24 171 0 195 -2 208 -17z"/>
<path d="M2420 3555 l0 -45 85 0 85 0 0 45 0 45 -85 0 -85 0 0 -45z"/>
<path d="M2398 3351 c-53 -17 -97 -51 -107 -84 -17 -51 -40 -222 -47 -349 l-7
-118 30 0 30 0 6 113 c8 141 35 327 50 346 46 56 258 56 304 0 15 -19 42 -205
50 -346 l6 -113 29 0 c28 0 28 1 28 62 0 93 -30 337 -49 393 -13 42 -23 54
-61 75 -38 20 -61 25 -140 27 -52 1 -107 -2 -122 -6z m237 -31 c73 -36 77 -47
110 -310 20 -160 20 -192 -2 -188 -15 3 -19 20 -25 118 -10 164 -35 311 -56
332 -45 44 -173 58 -269 30 -68 -20 -78 -53 -96 -314 -10 -155 -12 -168 -30
-168 -18 0 -19 6 -12 103 13 194 42 342 74 371 65 59 213 72 306 26z"/>
<path d="M1924 2725 c-26 -26 -27 -29 -20 -103 4 -50 12 -86 24 -101 21 -28
160 -109 202 -118 l30 -5 0 141 c0 92 -4 141 -11 141 -5 0 -27 14 -48 31 -29
22 -52 32 -94 36 -51 5 -58 3 -83 -22z m158 -24 c23 -17 48 -31 55 -31 10 0
13 -30 13 -130 0 -119 -1 -129 -17 -123 -39 15 -182 95 -192 107 -21 25 -33
136 -20 169 23 56 91 59 161 8z"/>
<path d="M2965 2743 c-11 -2 -37 -18 -57 -34 -20 -16 -42 -29 -47 -29 -7 0
-11 -48 -11 -140 0 -123 2 -140 16 -140 15 0 148 63 195 93 29 18 44 67 44
144 0 54 -4 77 -16 89 -17 17 -88 27 -124 17z m95 -18 c29 -15 30 -17 30 -93
0 -53 -5 -84 -15 -99 -13 -19 -190 -123 -209 -123 -3 0 -6 59 -6 130 0 103 3
130 14 130 7 0 25 9 39 20 65 51 100 59 147 35z"/>
<path d="M2303 2709 c-18 -5 -48 -13 -65 -17 l-33 -8 -3 -142 -3 -142 306 0
306 0 -3 142 -3 143 -55 14 c-64 16 -396 24 -447 10z m397 -17 l95 -17 3 -132
3 -133 -296 0 -296 0 3 133 3 132 95 17 c124 21 271 21 390 0z"/>
</g>
</svg>
