<?xml version="1.0" standalone="no"?>
<!DOCTYPE svg PUBLIC "-//W3C//DTD SVG 20010904//EN"
 "http://www.w3.org/TR/2001/REC-SVG-20010904/DTD/svg10.dtd">
<svg version="1.0" xmlns="http://www.w3.org/2000/svg"
 width="496.000000pt" height="496.000000pt" viewBox="0 0 496.000000 496.000000"
 preserveAspectRatio="xMidYMid meet">
<metadata>
Created by potrace 1.16, written by Peter Selinger 2001-2019
</metadata>
<g transform="translate(0.000000,496.000000) scale(0.100000,-0.100000)"
fill="#000000" stroke="none">
<path d="M2287 3775 c-9 -8 -23 -37 -31 -63 -23 -67 -11 -96 50 -122 34 -15
44 -24 40 -36 -3 -9 -6 -20 -6 -25 0 -5 -29 -9 -64 -9 -73 0 -105 -18 -135
-78 -23 -45 -64 -182 -57 -189 2 -3 14 28 26 69 46 159 65 180 174 188 59 4
70 8 73 25 5 30 -6 66 -20 64 -27 -5 -65 14 -75 36 -13 28 10 112 36 133 11 9
70 12 213 12 145 0 199 -3 207 -12 5 -7 17 -33 25 -58 9 -25 16 -37 17 -27 0
24 -28 89 -43 99 -7 4 -103 8 -214 8 -165 0 -204 -3 -216 -15z"/>
<path d="M2746 3633 c-7 -21 -19 -27 -71 -35 -16 -3 -20 -11 -20 -43 l0 -40
71 -6 c40 -3 82 -12 96 -21 27 -18 49 -64 74 -151 9 -32 18 -56 21 -53 12 12
-42 158 -72 193 -30 35 -36 37 -103 41 -61 4 -71 7 -76 25 -6 25 10 47 34 47
25 0 64 34 58 51 -3 10 -7 7 -12 -8z"/>
<path d="M2427 3594 c-10 -10 -9 -56 2 -72 5 -9 29 -12 82 -10 l74 3 0 40 0
40 -75 3 c-42 1 -79 0 -83 -4z m127 -10 c10 -4 16 -18 16 -35 0 -29 0 -29 -64
-29 -60 0 -64 2 -70 25 -4 14 -4 30 -1 35 7 11 94 14 119 4z"/>
<path d="M2410 3353 c-42 -9 -107 -60 -119 -94 -13 -39 -13 -39 -1 -39 6 0 10
8 10 19 0 33 39 69 98 91 116 44 267 8 305 -74 22 -47 34 -42 13 7 -9 24 -30
44 -62 63 -41 24 -60 28 -133 30 -47 1 -97 0 -111 -3z"/>
<path d="M2435 3313 c-11 -3 -24 -9 -30 -15 -7 -6 0 -7 20 -2 45 12 145 9 187
-5 21 -7 45 -22 53 -34 8 -12 15 -17 15 -11 0 16 -30 40 -70 56 -36 14 -139
21 -175 11z"/>
<path d="M2350 3280 c-11 -11 -22 -32 -25 -47 -3 -16 -10 -48 -15 -73 -5 -25
-13 -111 -16 -192 -6 -138 -8 -148 -27 -148 -18 0 -19 5 -12 103 4 56 13 142
21 191 7 49 12 91 10 94 -15 14 -56 -359 -43 -392 4 -9 18 -16 32 -16 24 0 25
2 25 73 0 59 12 179 35 357 1 13 15 34 29 47 15 13 22 23 17 23 -6 0 -20 -9
-31 -20z"/>
<path d="M2066 3209 c-31 -87 -46 -174 -45 -259 1 -52 5 -108 9 -125 4 -16 5
24 3 90 -4 106 -1 131 21 210 14 49 23 91 21 93 -3 3 -7 -1 -9 -9z"/>
<path d="M2680 3183 c9 -42 29 -237 33 -323 2 -51 4 -55 27 -55 l25 0 -2 105
c-3 122 -20 267 -34 290 -7 10 -9 2 -4 -30 42 -327 43 -353 18 -348 -15 3 -19
19 -25 111 -8 136 -28 287 -38 287 -4 0 -4 -17 0 -37z"/>
<path d="M2950 3150 c1 -3 8 -27 16 -55 l14 -50 -5 45 c-3 25 -10 49 -16 55
-5 5 -9 7 -9 5z"/>
<path d="M2978 2915 c-3 -77 -10 -131 -17 -133 -6 -2 -27 -15 -48 -30 -24 -16
-52 -26 -75 -26 -20 0 -34 -5 -31 -9 11 -18 79 1 125 33 46 33 47 33 53 104 4
39 5 98 3 131 -2 41 -5 19 -10 -70z"/>
<path d="M2080 2750 c46 -38 65 -38 22 0 -18 17 -38 30 -44 30 -7 0 3 -13 22
-30z"/>
<path d="M2338 2754 c-98 -15 -172 -33 -165 -40 2 -2 29 2 60 10 87 23 254 39
316 31 31 -3 65 -6 76 -6 19 1 110 -15 150 -26 14 -4 17 -2 10 5 -14 15 -209
42 -291 41 -38 -1 -108 -7 -156 -15z"/>
<path d="M1923 2724 c-25 -25 -25 -29 -19 -102 4 -50 12 -86 24 -101 21 -28
160 -109 202 -118 l30 -5 -2 133 -2 134 -3 -127 c-2 -76 -8 -128 -14 -128 -15
0 -154 71 -157 81 -2 5 -10 9 -18 9 -25 0 -43 44 -49 120 -9 97 2 115 73 115
28 0 48 3 45 8 -2 4 -22 7 -44 7 -30 0 -47 -7 -66 -26z"/>
<path d="M2965 2743 c-11 -3 -37 -18 -57 -34 -20 -16 -42 -29 -47 -29 -7 0
-11 -48 -11 -140 0 -123 2 -140 16 -140 9 0 53 18 97 41 100 51 115 61 121 76
3 6 -12 0 -32 -14 -44 -30 -167 -93 -182 -93 -6 0 -10 47 -9 128 l0 127 51 34
c28 18 72 37 97 41 40 7 42 8 11 8 -19 0 -44 -2 -55 -5z"/>
<path d="M2050 2736 c0 -10 85 -66 99 -65 14 0 14 1 1 7 -9 4 -32 19 -51 35
-34 25 -49 33 -49 23z"/>
<path d="M2328 2715 c-2 -3 -29 -9 -58 -15 -30 -6 -59 -15 -65 -22 -7 -8 -5
-9 9 -4 10 3 60 14 110 22 107 19 322 14 424 -9 74 -17 71 -5 -3 13 -48 12
-407 25 -417 15z"/>
<path d="M3102 2659 c-1 -15 -5 -42 -8 -60 -4 -28 -3 -31 6 -16 6 9 9 36 7 60
-2 23 -4 30 -5 16z"/>
<path d="M2202 2533 l-2 -133 298 2 297 3 -292 2 -292 3 -4 128 -3 127 -2
-132z"/>
<path d="M2804 2540 c0 -69 1 -97 3 -62 2 34 2 90 0 125 -2 34 -3 6 -3 -63z"/>
</g>
</svg>
